<?xml version="1.0" standalone="no"?>
<!DOCTYPE svg PUBLIC "-//W3C//DTD SVG 1.1//EN" "http://www.w3.org/Graphics/SVG/1.1/DTD/svg11.dtd" >
<svg xmlns="http://www.w3.org/2000/svg">
<metadata>Generated by IcoMoon</metadata>
<defs>
<font id="iconfont" horiz-adv-x="1024">
<font-face units-per-em="1024" ascent="960" descent="-64" />
<missing-glyph horiz-adv-x="1024" />
<glyph unicode="&#x20;" horiz-adv-x="512" d="" />
<glyph unicode="&#xe900;" glyph-name="left" d="M260.932 428.363c-0.51 0.989-1.34 1.815-1.786 2.837-8.77 18.246-5.898 40.569 9.631 55.241l352.078 333.001c19.199 18.148 49.465 17.286 67.646-1.884 18.147-19.198 17.315-49.464-1.884-67.645l-315.905-298.842 314.658-303.277c19.009-18.342 19.584-48.607 1.246-67.645-9.378-9.762-21.909-14.639-34.446-14.639-11.957 0-23.919 4.463-33.199 13.393l-348.886 336.257c-0.671 0.666-0.925 1.592-1.596 2.291-0.512 0.483-1.051 0.832-1.562 1.344-2.712 2.838-4.147 6.313-5.997 9.568v0z" />
<glyph unicode="&#xe901;" glyph-name="right" d="M644.896 445.344c-4.647 3.465-7.707 5.211-10.102 7.614-111.882 111.777-223.68 223.642-335.584 335.395-11.498 11.482-17.601 24.432-14.060 40.893 6.549 30.444 42.724 43.056 66.702 23.206 2.638-2.179 5.006-4.691 7.43-7.116 122.147-122.131 244.29-244.268 366.434-366.411 22.218-22.218 22.236-44.944 0.033-67.143-122.749-122.755-245.548-245.451-368.185-368.316-12.166-12.191-26.062-17.589-42.734-13.327-28.957 7.395-40.247 42.511-21.462 65.828 2.323 2.881 5.046 5.457 7.668 8.083 111.214 111.228 222.435 222.459 333.706 333.634 2.407 2.404 5.469 4.166 10.148 7.66z" />
<glyph unicode="&#xe902;" glyph-name="代理商" d="M510.742 897.416c-245.344 0-448.186-202.842-448.186-448.186s202.842-448.186 448.186-448.186 448.186 202.842 448.186 448.186-202.842 448.186-448.186 448.186zM510.742 708.745c66.002 0 117.947-51.944 117.947-117.948 0-66.002-51.945-117.948-117.947-117.948s-117.948 51.945-117.948 117.948c0.001 65.995 51.946 117.948 117.948 117.948zM713.584 265.168c-18.892-37.783-113.227-70.724-202.842-75.444-94.335 4.722-188.671 37.783-207.561 75.444-42.503 80.278 99.056 160.451 207.561 160.451s245.344-80.174 202.842-160.451z" />
<glyph unicode="&#xe903;" glyph-name="对号" d="M424.643 18.258c-123.812 156.948-269.496 276.521-371.446 313.897l240.374 149.484 116.511-231.721s189.399 470.856 487.987 627.814c-7.25-112.097-36.413-209.224 14.561-328.837-131.113-29.921-400.599-366.213-487.987-530.637z" />
<glyph unicode="&#xe904;" glyph-name="关于我们" d="M511.535 891.444c-246.044 0-445.497-199.455-445.497-445.492 0-246.043 199.454-445.496 445.497-445.496 246.038 0 445.491 199.454 445.491 445.496 0 246.038-199.454 445.492-445.491 445.492zM708.061 534.265v-69.103c0-16.909-9.685-31.667-23.77-39.013v-135.076h-35.507l-13.049 85.489-13.023-85.489h-32.614v121.959c13.348 13.044 21.246 31.098 21.246 50.36v75.213c0 14.153-4.195 27.344-11.433 38.404 3.265 0.785 6.663 1.2 10.147 1.2h54.079c24.156 0.001 43.924-19.785 43.924-43.944zM635.826 679.172c25.557 0 46.268-20.711 46.268-46.268 0-25.553-20.711-46.284-46.268-46.284-25.569 0-46.279 20.731-46.279 46.284-0.001 25.558 20.71 46.268 46.279 46.268zM512.293 696.291c27.824 0 50.355-22.531 50.355-50.359 0-27.807-22.531-50.355-50.355-50.355-27.807 0-50.359 22.548-50.359 50.355 0 27.828 22.553 50.359 50.359 50.359zM433.664 538.606c0 26.29 21.533 47.801 47.823 47.801h58.827c26.302 0 47.818-21.511 47.818-47.801v-75.213c0-18.478-10.632-34.6-26.092-42.548v-146.893h-35.473l-14.207 93.032-14.188-93.036h-38.636v147.003c-15.332 7.987-25.874 24.035-25.874 42.441v75.214zM386.54 679.172c25.557 0 46.285-20.711 46.285-46.268 0-25.553-20.728-46.284-46.285-46.284-25.553 0-46.268 20.731-46.268 46.284 0 25.558 20.715 46.268 46.268 46.268zM314.308 534.265c0 24.159 19.764 43.945 43.923 43.945h54.075c3.488 0 6.883-0.415 10.151-1.2-7.237-11.060-11.436-24.25-11.436-38.404v-75.213c0-19.263 7.898-37.316 21.25-50.36v-121.961h-32.611l-13.048 85.489-13.044-85.489h-35.49v135.076c-14.081 7.345-23.77 22.103-23.77 39.013v69.104zM511.526 195.606c-140.585 0-254.562 35.152-254.562 78.505 0 18.246 20.176 35.022 54.019 48.358-8.112-5.649-12.542-11.725-12.542-18.050 0-29.452 95.389-53.291 213.085-53.291 117.692 0 213.098 23.839 213.098 53.291 0 6.325-4.431 12.401-12.564 18.050 33.848-13.337 54.040-30.113 54.040-48.358-0.001-43.353-113.974-78.505-254.575-78.505z" />
<glyph unicode="&#xe905;" glyph-name="金币" d="M257.435 569.658c4.945-3.577 11.166-7.089 18.616-10.479 7.081-3.185 15.145-6.271 24.315-9.055 27.868-8.448 64.994-14.351 109.079-14.351 44.093 0 81.229 5.902 109.089 14.351 9.169 2.784 17.248 5.87 24.323 9.055 7.45 3.389 13.664 6.902 18.6 10.479 8.843 6.369 13.689 12.854 13.689 18.616 0 5.756-4.845 12.215-13.689 18.601-16.119-7.826-35.513-14.033-56.732-18.601-18.994-4.126-39.428-6.918-60.37-8.382-11.552-0.819-23.234-1.254-34.9-1.254-11.682 0-23.365 0.434-34.916 1.254-20.934 1.465-41.367 4.257-60.354 8.382-21.236 4.568-40.598 10.774-56.749 18.601-8.817-6.386-13.656-12.846-13.656-18.601 0.001-5.762 4.839-12.247 13.656-18.616zM374.432 427.373c-20.901 1.474-41.318 4.264-60.263 8.367-21.219 4.584-40.598 10.79-56.751 18.601-8.8-6.37-13.639-12.837-13.639-18.601 0-5.755 4.839-12.222 13.656-18.609 4.945-3.56 11.166-7.090 18.616-10.462 7.089-3.21 15.145-6.28 24.315-9.047 27.868-8.458 64.994-14.359 109.088-14.359 1.367 0 2.662 0.064 4.011 0.082v1.924c0 9.619 2.988 18.428 8.326 26.442 3.594 5.395 8.203 10.439 13.794 15.106-8.678-0.468-17.413-0.689-26.132-0.689-11.714 0-23.421 0.418-35.022 1.245zM257.435 378.089c-8.817-6.37-13.656-12.836-13.656-18.609 0-21.4 64.544-52.484 165.674-52.484 1.367 0 2.662 0.082 4.011 0.082v42.824c-1.351 0-2.677-0.033-4.011-0.033-56.537-0.001-113.459 9.586-152.018 28.22zM257.419 493.406c4.946-3.577 11.184-7.106 18.633-10.479 7.073-3.209 15.113-6.271 24.282-9.055 27.867-8.432 65.001-14.359 109.12-14.359 44.102 0 81.237 5.927 109.105 14.359 9.169 2.784 17.234 5.845 24.33 9.055 7.435 3.373 13.656 6.902 18.601 10.479 8.826 6.369 13.656 12.82 13.656 18.608 0 5.756-4.845 12.223-13.689 18.592-16.119-7.81-35.489-14.007-56.685-18.592-18.943-4.101-39.345-6.918-60.253-8.375-11.593-0.827-23.332-1.261-35.065-1.261-11.739 0-23.487 0.434-35.063 1.261-20.91 1.457-41.311 4.273-60.247 8.375-21.212 4.584-40.573 10.783-56.718 18.592-8.809-6.369-13.647-12.836-13.647-18.592 0-5.787 4.838-12.238 13.639-18.608zM765.355 327.602c-16.144-7.803-35.53-14.016-56.734-18.609-18.943-4.086-39.337-6.918-60.236-8.369-11.619-0.834-23.349-1.259-35.089-1.259-11.723 0-23.455 0.425-35.064 1.259-5.461 0.362-10.93 0.861-16.316 1.426-11.544 1.22-22.859 2.873-33.771 4.904-3.422 0.639-6.802 1.309-10.143 2.038-8.342 1.801-16.373 3.856-24.061 6.163-11.87 3.554-22.841 7.703-32.657 12.444-8.809-6.378-13.639-12.821-13.639-18.592 0-0.148 0.074-0.277 0.074-0.426 0.18-4.904 3.79-10.308 10.339-15.718 1.015-0.843 2.112-1.654 3.25-2.482 4.945-3.561 11.158-7.105 18.608-10.454 0.663-0.32 1.277-0.615 1.965-0.932 6.583-2.874 14.049-5.602 22.358-8.13 27.851-8.432 64.978-14.335 109.055-14.335 44.11 0 81.237 5.903 109.104 14.335 9.161 2.783 17.234 5.846 24.324 9.062 7.441 3.348 13.656 6.892 18.609 10.454 8.841 6.385 13.664 12.854 13.664 18.625-0.001 5.764-4.824 12.214-13.641 18.593zM765.331 251.358c-38.552-18.657-95.466-28.244-152.036-28.244-56.538 0-113.452 9.586-151.995 28.244-8.825-6.37-13.655-12.855-13.655-18.624 0-21.4 64.528-52.495 165.65-52.495 101.156 0 165.7 31.094 165.7 52.495 0 5.769-4.83 12.254-13.664 18.624zM511.395 960c-282.425 0-511.375-228.949-511.375-511.375s228.949-511.376 511.375-511.376 511.376 228.949 511.376 511.376c0 282.425-228.95 511.375-511.376 511.375zM813.173 232.734c0-56.367-100.558-85.887-199.878-85.887-99.313 0-199.829 29.513-199.829 85.887v40.916c-1.351-0.016-2.677-0.033-4.011-0.033-99.329 0-199.846 29.489-199.846 85.863v305.053c0 56.382 100.516 85.879 199.846 85.879 99.313 0 199.855-29.497 199.855-85.879v-193.444c1.35 0.016 2.661 0.057 3.987 0.057 93.821 0 188.671-26.329 198.912-76.767h0.966v-161.645z" />
<glyph unicode="&#xe906;" glyph-name="客服" d="M512 0.12c-247.358 0-447.88 200.522-447.88 447.88s200.521 447.88 447.88 447.88 447.88-200.521 447.88-447.88c0-247.356-200.522-447.88-447.88-447.88zM391.132 325.031c14.314-13.21 29.922-24.872 47.097-34.042 9.34-4.96 19.648-9.974 30.454-14.51 16.524-5.072 34.045-7.872 52.192-7.872 99.756 0.005 180.63 82.98 180.63 185.355 0 102.35-80.874 185.328-180.63 185.328-99.766 0-180.64-82.977-180.64-185.328-0.001-50.147 19.427-95.54 50.897-128.93zM750.768 512.126c-25.413 106.046-118.717 184.696-229.894 184.696-111.14 0-204.366-78.556-229.839-184.545 0 0-63.76-10.34-60.942-76.143 2.826-65.783 70.070-69.785 70.070-69.785 0.81-2.107 14.946 2.051 20.021 2.93-10.478 26.091-16.307 54.682-16.307 84.68 0 122.952 97.162 222.626 216.998 222.626 119.833 0 216.978-99.673 216.978-222.625 0-98.124-61.837-181.369-147.712-211.002-5.522-1.937-11.345 0.627-11.345 0.627s-14.554 2.797-32.8-2.486c-8.98-2.647-12.841-12.461-12.303-21.082 0.672-10.26 4.463-17.63 14.912-19.258 13.454-2.166 32.58-4.613 39.803 10.145 1.959 4.001 4.084 11.448 8.678 13.038 66.354 23.15 119.463 75.66 144.653 142.428 0 0 66.878 8.040 68.836 71.296 1.976 63.238-59.807 74.46-59.807 74.46zM520.874 611.47c84.794 0 153.537-70.513 153.537-157.508 0-87-68.743-157.553-153.537-157.553-84.78 0-153.543 70.553-153.543 157.553 0 86.995 68.763 157.508 153.543 157.508zM520.874 324.862c98.452 0 98.452 91.727 98.452 91.727s-94.536-88.666-196.883 0c0 0 0-91.727 98.431-91.727z" />
<glyph unicode="&#xe907;" glyph-name="认证" d="M512 710.021c-108.134 0-195.794-87.66-195.794-195.794s87.66-195.794 195.794-195.794 195.794 87.66 195.794 195.794c0 108.134-87.66 195.794-195.794 195.794zM611.363 531.415l-32.581-31.758c-3.658-3.566-5.327-8.702-4.463-13.736l7.691-44.844c2.174-12.677-11.132-22.345-22.517-16.359l-40.272 21.172c-4.521 2.377-9.923 2.377-14.442 0l-40.272-21.172c-11.385-5.985-24.691 3.682-22.517 16.359l7.691 44.844c0.863 5.034-0.805 10.17-4.463 13.736l-32.581 31.758c-9.21 8.978-4.128 24.62 8.601 26.47l45.025 6.542c5.055 0.734 9.425 3.91 11.685 8.489l20.136 40.8c5.692 11.533 22.14 11.533 27.831 0l20.136-40.8c2.26-4.58 6.629-7.755 11.684-8.489l45.025-6.542c12.728-1.849 17.811-17.492 8.601-26.47zM512 895.488c-247.141 0-447.488-200.347-447.488-447.488s200.347-447.488 447.488-447.488c247.14 0 447.488 200.348 447.488 447.488s-200.348 447.488-447.488 447.488zM751.561 264.497c6.212-7.402 1.601-18.736-8.014-19.701l-48.827-4.899c-4.92-0.494-9.038-3.949-10.378-8.707l-13.302-47.236c-2.619-9.301-14.583-11.873-20.793-4.472l-82.886 98.78c-17.788-4.158-36.304-6.428-55.359-6.428s-37.571 2.269-55.361 6.428l-82.886-98.78c-6.211-7.402-18.174-4.829-20.793 4.472l-13.303 47.236c-1.34 4.76-5.458 8.214-10.377 8.707l-48.827 4.899c-9.615 0.965-14.225 12.298-8.015 19.701l66.869 79.692c-43.087 43.756-69.7 103.779-69.7 170.038 0 133.869 108.522 242.392 242.391 242.392s242.391-108.522 242.391-242.392c0-66.259-26.614-126.283-69.7-170.038l66.869-79.692z" />
<glyph unicode="&#xe908;" glyph-name="设置" d="M719.1 506.5c-9 9.2-14.5 21.2-15.1 34.1-1 20.8-2.7 59-1.3 80.3 0.2 3.6-1 7-3.5 9.6-2.5 2.5-5.9 4.1-9.5 4.1h-77.2c-13.9 0-26.9 5.4-36.6 15.2l-46.9 46.8c-9.8 9.7-26.9 9.7-36.6 0l-46.9-46.9c-9.8-9.8-22.8-15.2-36.6-15.2h-62.5c-7.3 0-13.9-3-18.9-8.2-5-5.3-7.4-12.3-6.9-19.6 4.3-63.7-2.5-80-4.7-85.5-2.3-5.3-9-21.8-57.1-63.8-5.6-4.9-8.7-11.5-8.9-18.8-0.2-7.2 2.4-14 7.5-19.1l44.2-44.2c9.8-9.7 15.2-22.8 15.2-36.6v-62.7c0-14.2 11.7-25.8 25.9-25.8l1.7 0.1c13.5 0.9 25.8 1.4 36.7 1.4 22.8 0 38.8-2 48.8-6.1 5.3-2.2 21.8-9 63.8-57.1 9.6-10.9 27.7-11.6 37.9-1.4l44.2 44.2c9.8 9.8 22.8 15.2 36.6 15.2h63.6c7.2 0 13.9 2.8 18.8 8s7.4 12 7.1 19.2c-1 19.9 0.7 50.6 1.7 67.2 0.8 12.5 6.1 24.3 15.1 33.2l48.1 48.1c4.9 4.9 7.5 11.4 7.6 18.2 0 7-2.7 13.4-7.5 18.3l-47.8 47.8zM515.2 342.4c-49.5 0-89.6 40.1-89.6 89.6s40.1 89.6 89.6 89.6c49.5 0 89.6-40.1 89.6-89.6s-40.1-89.6-89.6-89.6zM512 896c-247.4 0-448-200.6-448-448s200.6-448 448-448 448 200.6 448 448-200.6 448-448 448zM784.8 403.9l-48.1-48.1c-4.4-4.5-7.1-10.4-7.5-16.7-1-15.9-2.7-45.5-1.7-64.2 0.7-14.4-4.4-27.9-14.2-38.3s-23-16.1-37.4-16.1h-63.6c-6.9 0-13.4-2.7-18.3-7.5l-44.2-44.2c-9.7-9.8-22.7-15.2-36.5-15.2-14.9 0-29.2 6.5-39 17.7-34.4 39.3-49.4 48.3-54.3 50.3-3.8 1.5-13.8 4.2-38.9 4.2-10.3 0-22-0.3-35-1.3-30.2-1.9-55.2 22-55.2 51.7v62.7c0 7-2.7 13.4-7.5 18.3l-44.2 44.2c-10.2 10.2-15.5 23.7-15.1 38.2 0.5 14.4 6.9 27.9 17.7 37.4 39.3 34.4 48.2 49.5 50.1 54.3 2.1 4.9 6.4 21.8 2.9 73.9-0.9 14.2 4.2 28.5 13.9 38.9 10 10.5 23.3 16.3 37.7 16.3h62.6c6.9 0 13.4 2.7 18.3 7.5l46.9 46.9c19.5 19.6 53.5 19.6 73.1 0l46.9-46.9c4.9-4.9 11.3-7.5 18.3-7.5h77.2c10.7 0 21-4.5 28.3-12.3s11.1-18.3 10.4-29c-1.3-20 0.2-57.1 1.3-77.4 0.3-6.4 3-12.5 7.5-17l47.7-47.8c9.8-9.7 15.2-22.7 15.2-36.5-0.1-13.7-5.5-26.8-15.3-36.5z" />
<glyph unicode="&#xe909;" glyph-name="微信" d="M236.24 636.231c0-24.005 19.32-43.325 43.325-43.325s43.326 19.32 43.326 43.325c0 24.005-19.321 43.325-43.326 43.325-24.004 0-43.325-19.32-43.325-43.325zM572.304 413.164c0-18.735 15.223-33.958 33.958-33.958s33.958 15.223 33.958 33.958-15.223 33.958-33.958 33.958-33.958-15.223-33.958-33.958zM456.38 636.231c0-24.005 19.32-43.325 43.325-43.325s43.325 19.32 43.325 43.325c0 24.005-19.32 43.325-43.325 43.325s-43.325-19.32-43.325-43.325zM858.017 960h-692.034c-91.335 0-165.69-74.356-165.69-166.276v-690.863c0-91.92 74.355-166.276 165.69-166.276h692.034c91.335 0 165.69 74.356 165.69 166.276v690.863c0 91.336-74.355 166.276-165.69 166.276zM384.366 273.82c-38.642 0-69.672 8.197-108.899 15.808l-108.313-54.448 31.030 93.090c-77.868 54.45-124.121 124.708-124.121 209.602 0 147.54 139.929 264.050 310.303 264.050 152.81 0 286.298-93.090 313.23-217.798-8.961 1.117-19.335 1.755-29.857 1.757h-0.002c-147.54 0-264.050-110.070-264.050-245.315 0-22.834 3.513-44.496 9.367-64.988-9.367-1.171-18.735-1.757-28.688-1.757zM842.209 165.507l23.42-77.283-84.895 46.838c-31.030-7.61-62.060-15.808-93.090-15.808-147.541 0-264.051 100.703-264.051 225.41 0 124.12 116.51 225.408 264.050 225.408 139.344 0 263.465-101.288 263.465-225.409-0.585-70.843-46.838-132.903-108.899-179.156zM741.507 413.164c0-18.735 15.223-33.958 33.958-33.958s33.958 15.223 33.958 33.958-15.223 33.958-33.958 33.958c-19.32 0-33.958-15.223-33.958-33.958z" />
<glyph unicode="&#xe90a;" glyph-name="分享" d="M280.576 541.696c-50.176 0-91.136-40.96-91.136-91.136s40.96-91.136 91.136-91.136 91.136 40.96 91.136 91.136-40.96 91.136-91.136 91.136zM668.16 199.68c37.888 0 68.608 30.72 68.608 68.608s-30.72 68.608-68.608 68.608-68.608-30.72-68.608-68.608 30.72-68.608 68.608-68.608zM668.16 564.224c37.888 0 68.608 30.72 68.608 68.608s-30.72 68.608-68.608 68.608-68.608-30.72-68.608-68.608 30.72-68.608 68.608-68.608zM512 943.104c-271.36 0-491.008-220.16-491.008-491.008s219.648-491.008 491.008-491.008 491.008 219.648 491.008 491.008-219.648 491.008-491.008 491.008zM417.28 450.048c0-12.8-2.048-25.088-5.12-36.864l164.864-77.824c20.992 27.648 53.76 46.080 91.136 46.080 62.976 0 114.176-51.2 114.176-114.176s-51.2-114.176-114.176-114.176-114.176 51.2-114.176 114.176c0 9.216 1.536 17.92 3.584 26.624l-164.864 77.312c-24.576-35.328-65.536-58.88-112.128-58.88-75.776 0-136.704 61.44-136.704 136.704 0 75.776 61.44 136.704 136.704 136.704 46.592 0 87.552-23.040 112.128-58.88l164.864 77.312c-2.048 8.704-3.584 17.408-3.584 26.624 0 62.976 51.2 114.176 114.176 114.176s114.176-51.2 114.176-114.176-51.2-114.176-114.176-114.176c-37.376 0-70.144 18.432-91.136 46.080l-164.864-75.776c3.072-11.776 5.12-24.064 5.12-36.864z" />
<glyph unicode="&#xe90b;" glyph-name="问题" d="M512 896c-247.040 0-448-200.96-448-448s200.96-448 448-448 448 200.96 448 448-200.96 448-448 448zM512 127.648c-26.496 0-48 21.504-48 48s21.504 48 48 48 48-21.504 48-48-21.504-48-48-48zM600.576 454.816c-27.84-27.808-56.576-56.544-56.576-82.368v-54.112c0-17.664-14.336-32-32-32s-32 14.336-32 32v54.112c0 52.352 40 92.352 75.328 127.648 25.888 25.888 52.672 52.64 52.672 73.984 0 53.344-43.072 96.736-96 96.736-53.824 0-96-41.536-96-94.56 0-17.664-14.336-32-32-32s-32 14.336-32 32c0 87.424 71.776 158.56 160 158.56s160-72.096 160-160.736c0-47.872-36.32-84.16-71.424-119.264z" />
<glyph unicode="&#xe90d;" glyph-name="银行卡" d="M127.023 810.917h769.956c69.863 0 127.021-57.157 127.021-127.023v-471.789c0-69.86-57.158-127.023-127.021-127.023h-769.956c-69.867 0.001-127.023 57.163-127.023 127.024v471.788c0 69.866 57.157 127.023 127.023 127.023zM980.044 574.588h-940.068v-368.197c0-44.292 36.239-80.53 80.529-80.53h779.008c44.292 0 80.531 36.239 80.531 80.529v368.198zM39.97 617.208h940.074v72.383c0 44.292-36.239 80.53-80.54 80.53h-778.998c-44.291 0-80.535-36.239-80.535-80.529l-0.001-72.384zM147.768 491.862h383.55c11.768 0 21.307-9.539 21.307-21.307s-9.539-21.307-21.307-21.307h-383.55c-11.768 0-21.309 9.539-21.309 21.307s9.541 21.307 21.309 21.307zM791.75 384.071h81.471c11.768 0 21.313-9.54 21.313-21.307 0-11.773-9.544-21.314-21.313-21.314h-81.471c-11.773 0-21.312 9.541-21.312 21.314 0.005 11.767 9.538 21.307 21.312 21.307zM791.75 300.088h81.471c11.768 0 21.313-9.541 21.313-21.309s-9.544-21.307-21.313-21.307h-81.471c-11.773 0-21.312 9.539-21.312 21.307 0.005 11.769 9.538 21.309 21.312 21.309z" />
<glyph unicode="&#xe90e;" glyph-name="支付宝" d="M283.486 168.286c-149.558 0-173.272 94.585-165.457 134.198 8.084 39.074 51.2 90.543 134.467 90.543 95.663 0 181.356-24.522 284.025-74.644-72.219-94.046-160.876-150.097-253.036-150.097zM1024 258.829v504.185c0 108.867-88.118 196.985-196.985 196.985h-630.029c-108.867 0-196.985-88.118-196.985-196.985v-630.029c0-108.867 88.118-196.985 196.985-196.985h630.029c97.011 0 177.583 70.063 194.021 162.223-52.278 22.366-278.636 120.185-396.396 176.505-89.735-108.598-183.781-173.811-325.524-173.811-141.474 0-236.059 87.040-224.741 194.021 7.545 70.063 55.512 184.589 264.354 164.918 109.945-10.24 160.337-30.989 250.072-60.632 23.175 42.577 42.577 89.465 57.128 139.318h-397.743v39.613h196.716v70.602h-240.101v43.385h240.101v102.131s2.156 16.168 19.941 16.168h98.358v-118.299h256v-43.385h-256v-70.602h208.842c-19.133-78.147-48.236-150.097-84.884-212.884 60.632-21.827 336.842-106.442 336.842-106.442z" />
<glyph unicode="&#xe90f;" glyph-name="还款方式" d="M336.432 657.333c12.496 12.496 31.823 19.468 39.228 12.070l139.573-146.357 142.516 142.516c7.639 7.646 24.296 3.381 37.185-9.511 12.902-12.896 17.16-29.543 9.52-37.182l-109.792-109.801h81.262c17.668 0 31.987-14.325 31.987-31.987 0-17.671-14.319-31.991-31.987-31.991h-127.971v-95.974h127.971c17.668 0 31.987-14.325 31.987-31.987 0-17.671-14.319-31.991-31.987-31.991h-127.971v-127.96c0-17.671-14.319-31.997-31.991-31.997-17.658 0-31.987 14.325-31.987 31.997v127.96h-127.957c-17.671 0-31.991 14.319-31.991 31.991 0 17.662 14.319 31.987 31.991 31.987h127.957v95.974h-127.957c-17.671 0-31.991 14.319-31.991 31.991 0 17.661 14.319 31.987 31.991 31.987h82.72l-108.322 115.091c-7.393 7.406-6.481 20.678 6.015 33.174zM1020.203 448.897h-63.515c0 245.502-199.023 444.525-444.531 444.525-245.505 0-444.528-199.023-444.528-444.525 0-245.509 199.023-444.531 444.528-444.531 163.873 0 306.66 88.922 383.751 220.903l56.941-28.469c-87.601-152.783-251.948-255.945-440.693-255.945-280.572 0-508.033 227.457-508.033 508.043 0 280.579 227.461 508.033 508.033 508.033 191.39 0 357.905-105.932 444.531-262.261v71.75c0 17.53 14.225 31.749 31.752 31.749 17.54 0 31.761-14.219 31.761-31.749v-222.269c0-6.932 0.72-5.345 0.286-21.279 0.096-25.922-0.283-47.715-0.283-73.974z" />
<glyph unicode="&#xe910;" glyph-name="借款" d="M677.76 719.147c-3.856 3.834-9.171 6.204-15.040 6.204s-11.184-2.37-15.041-6.205l-112.852-112.853-112.854 112.854c-3.856 3.834-9.171 6.204-15.040 6.204s-11.184-2.37-15.041-6.205l0.001 0.001c-3.841-3.114-6.275-7.833-6.275-13.12s2.435-10.006 6.244-13.095l0.031-0.025 112.854-109.014h-97.92c-11.782 0-21.333-9.551-21.333-21.333s9.551-21.333 21.333-21.333v0h105.173v-64h-105.173c-11.782 0-21.334-9.551-21.334-21.334s9.551-21.334 21.334-21.334v0h106.666v-64c0-11.782 9.551-21.333 21.333-21.333 0 0 0.001 0 0.001 0v0c11.782 0 21.333 9.551 21.333 21.333v0 64h106.667c11.782 0 21.333 9.551 21.333 21.334s-9.551 21.334-21.333 21.334v0h-108.16v64h108.586c11.782 0 21.333 9.551 21.333 21.333s-9.551 21.333-21.333 21.333v0h-98.346l112.853 109.014c3.841 3.114 6.275 7.833 6.275 13.12s-2.435 10.006-6.244 13.095l-0.031 0.025zM975.573 421.12c-50.346 45.227-113.493-4.267-134.186-21.333s-45.227-39.894-72.107-65.707c-36.312-36.783-75.090-70.895-116.156-102.157l-2.671-1.95c-31.402-24.232-71.312-38.84-114.633-38.84-6.359 0-12.645 0.315-18.843 0.93l0.783-0.063h-110.933c-0.033 0.532-0.052 1.154-0.052 1.78 0 10.771 5.582 20.239 14.011 25.667l0.121 0.073c24.533 21.333 49.706 48.64 49.706 80 0 44.8-25.6 64-85.333 64-36.907 0-104.107-27.733-137.813-45.013l-14.080-7.040c-38.352 56.632-61.226 126.468-61.226 201.645 0 200.295 162.372 362.667 362.667 362.667s362.667-162.372 362.667-362.667c0-0.391-0.001-0.782-0.002-1.173v0.060c0-11.782 9.551-21.334 21.334-21.334s21.334 9.551 21.334 21.334v0c0 223.86-181.474 405.334-405.334 405.334s-405.334-181.474-405.334-405.334v0c-0.065-2.69-0.103-5.86-0.103-9.038 0-78.424 22.69-151.548 61.863-213.166l-0.96 1.617c-147.626-74.24-176.853-97.28-176.853-120.746v-128c0-30.72 33.92-56.107 73.387-56.107h512c86.4 0 126.293 14.080 162.773 42.667s143.787 124.8 197.12 217.386c35.84 63.147 65.28 130.774 16.853 174.507zM921.6 266.667c-50.773-88.32-160.427-181.334-186.88-202.667-30.72-24.533-61.44-33.92-135.893-33.92h-512c-13.867 0-30.72 4.48-30.72 13.227v123.306c50.447 33.026 109.583 66.351 170.888 95.888l9.592 4.166c11.093 5.546 22.613 10.026 28.373 13.013 34.412 18.992 74.444 33.086 116.881 40.029l2.159 0.291c42.667 0 42.667-7.040 42.667-21.333s-25.6-39.467-35.2-48c-24.534-21.334-34.347-46.934-25.6-70.4 6.077-13.834 19.659-23.321 35.456-23.321 1.639 0 3.254 0.102 4.839 0.3l-0.189-0.019h110.934c50.133 0 89.386-4.054 157.013 42.666 45.875 33.966 86.399 68.942 124.168 106.675l-0.008-0.008c26.027 24.96 50.773 47.787 68.907 61.867 55.466 42.666 72.106 28.16 79.146 21.333s30.72-27.093-24.533-123.093z" />
<glyph unicode="&#xe911;" glyph-name="我的" d="M309.52 465.88c-1.94 0-3.47-0.28-4.67-0.76 1.63 0.49 3.37 0.76 5.16 0.76h-0.49zM845.13 252.48c0.050 0.99 0.18 1.96 0.39 2.9-0.23-0.43-0.35-1.35-0.39-2.9zM880.86 646.71c0.010 0.040 0.010 0.090 0.010 0.13v0.46c0-0.2 0-0.4-0.010-0.59zM845.11 646.77c0-0.040 0-0.080 0.010-0.12-0.010 0.21-0.010 0.43-0.010 0.65v-0.53zM866.673 110.57c-5.48 40.040-16.962 76.28-33.601 109.488l0.911-2.008c-3.26 6.62-6.71 13.13-10.37 19.51-0.010 0.023-0.024 0.043-0.040 0.060v0c-15.86 26.86-35.32 51.8-58 74.060l-0.010 0.010c-4.93 4.84-10.010 9.56-15.24 14.14-37.29 32.68-80.34 56.91-126.25 71.65 8.31 4.6 16.35 9.76 24.070 15.47 8.79 6.48 17.16 13.68 25.030 21.55 41.39 41.39 64.19 96.43 64.19 154.97s-22.8 113.58-64.19 154.97c-40.64 40.64-94.44 63.35-151.78 64.17-0.91 0.010-1.82 0.020-2.73 0.020s-1.82-0.010-2.73-0.020c-57.34-0.82-111.14-23.53-151.78-64.17-41.39-41.39-64.19-96.43-64.19-154.97s22.8-113.58 64.19-154.97c7.87-7.87 16.24-15.070 25.030-21.55 7.72-5.71 15.76-10.87 24.070-15.47-45.91-14.74-88.96-38.97-126.25-71.65-5.23-4.58-10.31-9.3-15.24-14.14-22.7-22.28-42.18-47.24-58.050-74.13-3.66-6.38-7.11-12.89-10.37-19.51-15.728-31.2-27.21-67.44-32.485-105.662l-0.205-1.818c-1.61-12 6.81-23.030 18.8-24.64 0.99-0.13 1.98-0.2 2.95-0.2 0.89 0 1.76 0.050 2.63 0.16 8.67 1.89 15.67 8.96 17.030 18.25 10.1 69.32 43.14 132.31 90.63 180.28 56.36 56.95 133.070 92.74 215.97 92.88h0.47c82.72-0.28 159.25-36.040 215.5-92.88 47.49-47.97 80.53-110.96 90.63-180.28 1.36-9.27 8.33-16.33 16.98-18.24 0.020 0 0.030-0.010 0.050-0.010 0.87-0.11 1.74-0.16 2.63-0.16 0.97 0 1.96 0.070 2.95 0.2 11.99 1.61 20.41 12.64 18.8 24.64zM518.193 414.14c-0.44 0-0.88 0-1.32 0.010-81.8 0.6-154.73 57.43-174.66 133.66-0.22 0.83-0.44 1.67-0.64 2.51-3.12 12.6-4.78 25.7-4.78 39.15s1.66 26.7 4.78 39.52c0.2 0.86 0.42 1.71 0.64 2.56 20.040 78.14 93.65 140.25 175.98 140.25h0.94c82.33 0 155.94-62.11 175.98-140.25 0.22-0.85 0.44-1.7 0.64-2.56 3.12-12.82 4.78-26.070 4.78-39.52s-1.66-26.55-4.78-39.15c-0.2-0.84-0.42-1.68-0.64-2.51-19.93-76.23-92.86-133.060-174.66-133.66-0.75-0.010-1.5-0.010-2.26-0.010z" />
<glyph unicode="&#xe913;" glyph-name="密码" d="M510.867 433.187c-29.502 0-53.407-23.903-53.407-53.408 0-15.816 6.876-30.022 17.802-39.8v-49.207c0-19.666 15.94-35.607 35.606-35.607 19.662 0 35.606 15.941 35.606 35.607v49.207c10.927 9.779 17.803 23.984 17.803 39.8-0.001 29.505-23.908 53.408-53.41 53.408v0zM760.109 593.404h-35.607v89.010c0 117.993-95.637 213.626-213.635 213.626s-213.635-95.633-213.635-213.626v-89.010h-35.606c-49.168 0-89.014-39.847-89.014-89.010v-338.244c0-49.16 39.847-89.006 89.014-89.006h498.481c49.148 0 89.014 39.843 89.014 89.006v338.244c0.001 49.165-39.866 89.010-89.013 89.010v0zM510.867 860.435c98.316 0 178.029-79.708 178.029-178.020v-89.010h-356.034v89.010h-0.024c0 98.312 79.714 178.020 178.029 178.020v0zM813.516 166.154c0-29.502-23.906-53.404-53.407-53.404h-498.481c-29.503 0-53.408 23.902-53.408 53.404v338.24c0 29.503 23.906 53.408 53.408 53.408h498.481c29.502 0 53.407-23.906 53.407-53.408v-338.24z" />
<glyph unicode="&#xe914;" glyph-name="验证" d="M890.915 768.19c-11.352 9.658-26.318 14.989-41.765 14.989-1.419 0-2.815-0.046-4.234-0.137-0.87-0.045-10.686-0.596-26.089-0.596-25.517 0-75.316 1.579-122.46 12.129-60.921 13.64-131.225 76.827-151.684 89.276-10.299 6.271-22.176 9.406-34.054 9.406-11.833 0-23.709-3.135-34.008-9.36-2.471-1.534-76.071-73.21-148.068-89.322-47.144-10.55-97.904-12.129-123.375-12.129-15.402 0-25.243 0.55-26.204 0.596-1.327 0.091-2.677 0.137-4.028 0.137-15.494 0-30.507-5.355-41.903-15.059-12.381-10.528-19.43-25.265-19.43-40.691v-139.418c0-515.427 370.47-581.817 386.192-584.403 3.593-0.596 7.209-0.87 10.825-0.87s7.278 0.274 10.825 0.87c15.722 2.586 388.939 68.976 388.939 584.403v139.419c-0.002 15.47-7.073 30.209-19.478 40.759v0zM849.149 588.012c0-474.736-338.522-529.524-338.522-529.524s-335.776 54.788-335.776 529.524v139.418c0 0 11.58-0.732 30.324-0.732 32.108 0 86.163 2.128 137.954 13.731 84.814 18.95 167.499 97.080 167.499 97.080s86.369-78.132 171.092-97.080c51.858-11.603 104.975-13.731 137.106-13.731 18.697 0 30.324 0.732 30.324 0.732v-139.418zM701.057 616.894l-237.276-215.994-117.655 107.149c-14.624 13.297-38.333 13.297-52.935 0-14.624-13.319-14.624-34.877 0-48.174l137.267-124.978c1.601-2.54 3.594-4.921 5.973-7.095 7.529-6.865 17.485-10.184 27.349-9.956 9.886-0.229 19.842 3.090 27.37 9.956 2.404 2.174 4.371 4.554 5.974 7.095l256.843 233.821c14.624 13.297 14.624 34.877 0 48.174-14.601 13.32-38.287 13.32-52.911 0.001v0z" />
<glyph unicode="&#xe915;" glyph-name="用户" d="M637.953 411.722c71.73 40.299 120.35 116.815 120.35 204.542 0 129.463-105.706 234.782-235.643 234.782s-235.628-105.32-235.628-234.782c0-84.393 45.042-158.307 112.302-199.684-152.041-47.787-262.605-189.523-262.605-356.6 0-5.059 0.56-9.957 0.762-14.974h52.356c-0.23 4.986-0.761 9.914-0.761 14.974 0 177.28 144.855 321.502 322.91 321.502s322.91-144.223 322.91-321.502c0-5.059-0.532-9.988-0.776-14.974h52.372c0.2 5.016 0.76 9.914 0.76 14.974 0.001 162.088-104.252 300.002-249.309 351.742zM339.39 616.264c0 100.59 82.209 182.424 183.271 182.424 101.065 0 183.272-81.835 183.272-182.424s-82.207-182.423-183.272-182.423c-101.062 0-183.27 81.833-183.27 182.423z" />
</font>
</defs>
</svg>
